<svg xmlns:dc="http://purl.org/dc/elements/1.1/" xmlns:cc="http://creativecommons.org/ns#" xmlns:rdf="http://www.w3.org/1999/02/22-rdf-syntax-ns#" xmlns:svg="http://www.w3.org/2000/svg" xmlns="http://www.w3.org/2000/svg" version="1.1" width="737" height="698.3333407507998" style=""><rect id="backgroundrect" width="100%" height="100%" x="0" y="0" fill="none" stroke="none"/>
  <defs id="defs3090"/>
  <metadata id="metadata3093">
    <rdf:RDF>
      <cc:Work rdf:about="">
        <dc:format>image/svg+xml</dc:format>
        <dc:type rdf:resource="http://purl.org/dc/dcmitype/StillImage"/>
        <dc:title/>
      </cc:Work>
    </rdf:RDF>
  </metadata>
  
<g class="currentLayer" style=""><title>Layer 1</title>
    
      <path d="m201.04378646528244,38.333305773551956 c-76.78104,0 -138.981455,62.199394 -138.981455,138.981457 c0,20.10075 3.856414,35.74365 10.878392,47.95224 c-1.392655,-6.78901 -2.1101900000000002,-14.51556 -2.1101900000000002,-23.57591 c0,-76.50898 61.962503,-138.654023 138.472103,-138.654023 c40.65851,0 77.36597,17.59969 102.74441,45.51461 c-23.88312,30.475453 -38.20171,68.808993 -38.20171,110.530283 c0,1.95615 0.08360000000000008,3.91654 0.1455300000000001,5.8576 c4.45768,-87.93948 77.2573,-157.827643 166.30478,-157.827643 c52.461,0 99.23434,24.28767 129.74029,62.214223 c8.78585,-2.53167 18.08648,-3.8929400000000003 27.68714,-3.8929400000000003 c3.07476,0.05360000000000006 6.27384,0.18282 8.84097,0.3638300000000002 c0.34112000000000037,0.030100000000000023 0.6785800000000004,0.07570000000000007 1.01871,0.10908000000000002 c0.9487300000000004,0.09310000000000011 1.8971,0.20787 2.83784,0.32745000000000035 c0.04900000000000003,0.006000000000000008 0.09660000000000012,0.030000000000000027 0.1455300000000001,0.03630000000000001 c0.78333,0.10106000000000002 1.55095,0.20837 2.32849,0.32745000000000035 c1.65781,0.2538800000000002 3.28169,0.5388900000000004 4.91165,0.8731800000000004 c0.8116300000000004,0.16608000000000014 1.63331,0.32368000000000036 2.43763,0.50935 c0.11991000000000006,0.027700000000000027 0.2440800000000001,0.044600000000000056 0.3638300000000002,0.0728 c0.6826700000000009,0.16029000000000018 1.36023,0.3351300000000002 2.03742,0.5093599999999996 c0.19331000000000018,0.04980000000000004 0.3892700000000002,0.09470000000000012 0.5821200000000004,0.1455300000000001 c1.39544,0.36847000000000035 2.77674,0.77402 4.14762,1.20062 c1.4198600000000001,0.4418400000000003 2.8284000000000002,0.91626 4.2203800000000005,1.41892 c0.13423000000000004,0.04850000000000003 0.26624,0.09650000000000011 0.4002,0.1455300000000001 c0.6534200000000004,0.23913 1.31769,0.4753600000000002 1.96466,0.7276500000000006 c0.29309,0.11433000000000006 0.58146,0.24679000000000015 0.8731900000000006,0.3638300000000002 c0.9546800000000004,0.38301000000000035 1.8980100000000002,0.7892 2.83784,1.20062 c0.1792000000000001,0.07840000000000005 0.36708000000000035,0.1389000000000001 0.5457400000000004,0.2183000000000001 c0.92205,0.41016 1.8216400000000008,0.83633 2.7286900000000003,1.27339 c0.47465,0.22844000000000025 0.94846,0.45559 1.41892,0.6912700000000007 c0.25453,0.12761999999999998 0.51075,0.2704800000000002 0.7640300000000004,0.40021 c0.6733100000000004,0.3446400000000002 1.33667,0.695740000000001 2.00105,1.05509 c0.03850000000000001,0.021000000000000015 0.07070000000000005,0.05180000000000005 0.10909000000000008,0.0728 c0.3868700000000004,0.20991000000000018 0.7804599999999996,0.40365 1.16424,0.6185 c0.31757000000000035,0.1780000000000001 0.63053,0.36437000000000036 0.9459500000000004,0.5457400000000004 c0.34267000000000036,0.1967600000000002 0.6786000000000008,0.41782000000000036 1.01871,0.6185 c0.34995000000000037,0.20682 0.7079200000000004,0.4075600000000002 1.05509,0.61851 c11.76479,7.13598 21.92898,16.60891 29.8701,27.79629 c0.2632,0.37824 0.54234,0.7458400000000007 0.80042,1.12786 c0.07390000000000002,0.10723000000000008 0.1447600000000001,0.21990000000000018 0.2183000000000001,0.3274400000000003 c10.62447,15.86191 16.80875,34.91853 16.80875,55.44706 c0,55.11976 -44.64129,99.8338 -99.76104,99.8338 c-28.48083,0 -54.21779,-11.93545 -72.40134,-31.07072 c12.41401,17.14364 29.68435,30.55126 49.77137,38.23809 c-25.45778,34.80423 -64.09841,59.34772 -108.602,66.28906 c48.69783,-3.44136 91.95289,-26.24882 122.20915,-60.79517 c8.17313,1.94106 16.77715,2.94699 25.54057,2.94699 c60.12233,0 108.94383,-48.29252 109.83901,-108.2018 c0.014100000000000007,-0.55542 0.030600000000000026,-1.11616 0.03630000000000001,-1.6736000000000009 c0,-0.3889200000000004 0.003000000000000004,-0.77628 0,-1.16424 c0,-0.5588000000000004 -0.028100000000000014,-1.11678 -0.03630000000000001,-1.6736000000000009 c-0.8942300000000004,-59.86359 -49.65324,-108.09269 -109.72986,-108.09269 c-3.8646200000000004,0 -7.69628,0.22989000000000018 -11.46052,0.6185 c-32.15965,-48.262013 -86.896,-80.187204 -149.24135,-80.187204 c-54.17677,0 -102.66019,24.145731 -135.5615,62.105061 C292.9223064652824,63.62964977355193 249.90992646528244,38.333305773551956 201.04378646528244,38.333305773551956 zM38.48641646528244,210.45929277355197 C23.987730765282443,226.01844277355195 15.09241646528244,246.85403277355192 15.09241646528244,269.79928277355197 c0,48.11451 38.985545,87.13629 87.099903,87.13629 c39.929917,0 73.434577,-26.92265 83.716317,-63.56037 c-1.19002,6.68551 -1.78275,13.60118 -1.78275,20.62892 c0,63.91293 51.81987,115.73299 115.733,115.73299 c63.91312,0 115.73299,-51.82006 115.73299,-115.73299 c0,-18.88318 -4.67615,-36.75316 -12.69752,-52.50006 c3.17231,10.199910000000001 4.87526,21.10086 4.87526,32.34411 c0,59.96319 -48.60222,108.56562 -108.56562,108.56562 c-59.96338,0 -108.56562,-48.60243 -108.56562,-108.56562 c0,-9.01094 1.02346,-17.78737 3.09252,-26.15908 c-2.32459,5.3171 -4.20801,10.88951 -5.71207,16.59046 c0.24549000000000018,-1.46619 0.48325,-2.91218 0.6548900000000007,-4.40229 c-9.83646,35.38633 -42.10307,61.45018 -80.623801,61.45018 c-46.319044,0 -83.8618535,-37.57914 -83.8618535,-83.89823 c0,-17.36965 5.2553245,-33.58484 14.2983545,-46.96992 z" id="path3884-6" style="fill:#46aac8;fill-opacity:0.95275915;stroke:none;display:inline" class=""/>
      <path d="m15.865304465282442,492.2416764843749 c-0.000006980000000000006,-2.91461 1.0267811,-5.39878 3.0803687,-7.45251 c2.0535667,-2.05342 4.5377319,-3.08021 7.4525043,-3.08036 c2.9147350000000003,0.00015000000000000015 5.398902,1.02694 7.452503,3.08036 c2.053552,2.05373 3.080341,4.5379000000000005 3.080369,7.45251 l0,127.38813 l73.730106,0 c2.914657,0.000030000000000000024 5.398821,1.02682 7.452511,3.08038 c2.05346,2.05359 3.08025,4.53775 3.08037,7.4525 c-0.00012000000000000008,2.9147600000000002 -1.02691,5.39893 -3.08037,7.4525 c-2.05369,2.05358 -4.537854,3.08037 -7.452511,3.08037 l-84.262978,0 c-1.5236401000000002,0 -2.9147724,-0.26498000000000016 -4.1734031,-0.7949400000000003 c-1.2586576,-0.52995 -2.3848124,-1.25864 -3.3784680000000002,-2.18607 c-0.9274328,-0.99365 -1.6561214000000006,-2.11981 -2.1860682000000002,-3.37846 c-0.5299632,-1.25864 -0.7949406800000003,-2.64977 -0.7949337,-4.1734 l0,-137.92101 " id="path3114" style="font-weight: bold; font-family: Comfortaa;" class="" fill="#ffffff" fill-opacity="1"/>
      <path d="m186.08049646528244,550.172466484375 c-4.90215,0.00010000000000000006 -9.47301,0.92752 -13.71261,2.78228 c-4.23969,1.85493 -7.91626,4.37221 -11.0297,7.55187 c-3.11353,3.11356 -5.59769,6.7901299999999996 -7.45251,11.02971 c-1.78863,4.2397 -2.6829300000000007,8.74433 -2.6829,13.51387 c-0.000030000000000000024,4.76964 0.8942700000000003,9.27427 2.6829,13.51387 c1.8548200000000001,4.23968 4.33898,7.94937 7.45251,11.12907 c3.11344,3.11352 6.79001,5.59768 11.0297,7.45251 c4.2396,1.85486 8.810459999999999,2.78229 13.71261,2.78226 c4.83578,0.000030000000000000024 9.37352,-0.9274 13.61325,-2.78226 c4.23955,-1.8548300000000002 7.91612,-4.37211 11.0297,-7.55187 c3.17965,-3.17971 5.66381,-6.85627 7.4525,-11.02971 c1.8547600000000002,-4.2396 2.78217,-8.74423 2.78227,-13.51387 c-0.00010000000000000006,-4.76954 -0.92751,-9.24105 -2.78227,-13.41451 c-1.7886900000000003,-4.23958 -4.27285,-7.94926 -7.4525,-11.12907 c-3.11358,-3.17966 -6.79015,-5.6969400000000014 -11.0297,-7.55187 c-4.23973,-1.8547600000000002 -8.77747,-2.78218 -13.61325,-2.78228 m34.877720000000004,80.18895 l0,-1.98733 c-4.96843,3.97467 -10.36735,7.02192 -16.19678,9.14173 c-5.82959,2.11983 -12.05656,3.1797400000000002 -18.68094,3.1797400000000002 c-15.36877,0 -28.48516,-5.43204 -39.34922,-16.29615 c-10.86411,-10.86406 -16.29615,-23.98046 -16.29614,-39.34921 c-0.000010000000000000008,-15.36865 5.43203,-28.48505 16.29614,-39.34923 c10.86406,-10.86398 23.98045,-16.296030000000002 39.34922,-16.29613 c15.23615,0.00010000000000000006 28.35255,5.43215 39.34923,16.29613 c10.86398,10.86418 16.29601,23.98058 16.29613,39.34923 l0,45.31122 c-0.00012000000000000008,2.84852 -1.02691,5.29957 -3.08036,7.35313 c-1.98745,1.98734 -4.4053700000000005,2.98101 -7.25378,2.98101 c-2.91486,0 -5.39903,-0.99367 -7.4525,-2.98101 c-1.9874299999999998,-2.05356 -2.9811,-4.50461 -2.981,-7.35313 " id="path3116" style="font-weight: bold; font-family: Comfortaa;" class="" fill="#ffffff" fill-opacity="1"/>
      <path d="m313.26989646528244,619.927906484375 c4.83579,0.000030000000000000024 9.37352,-0.9274 13.61324,-2.78226 c4.23957,-1.8548300000000002 7.91613,-4.37211 11.02971,-7.55187 c3.17964,-3.17971 5.66381,-6.85627 7.45251,-11.02971 c1.85474,-4.2396 2.78217,-8.74423 2.78227,-13.51387 c-0.00010000000000000006,-4.76954 -0.92753,-9.24105 -2.78227,-13.41451 c-1.7887,-4.23958 -4.27287,-7.94926 -7.45251,-11.12907 c-3.11358,-3.17966 -6.79014,-5.6969400000000014 -11.02971,-7.55187 c-4.23972,-1.8547600000000002 -8.77745,-2.78218 -13.61324,-2.78228 c-4.90214,0.00010000000000000006 -9.47301,0.92752 -13.7126,2.78228 c-4.23969,1.85493 -7.91626,4.37221 -11.02971,7.55187 c-3.11352,3.11356 -5.59769,6.7901299999999996 -7.4525,11.02971 c-1.78863,4.2397 -2.6829300000000007,8.74433 -2.6829,13.51387 c-0.000030000000000000024,4.76964 0.8942700000000003,9.27427 2.6829,13.51387 c1.85481,4.23968 4.33898,7.94937 7.4525,11.12907 c3.11345,3.11352 6.79002,5.59768 11.02971,7.45251 c4.23959,1.85486 8.810459999999999,2.78229 13.7126,2.78226 m-34.87771,-78.2016 c9.87038,-8.21421 21.49628,-12.32137 34.87771,-12.32147 c15.23616,0.00010000000000000006 28.35255,5.43215 39.34923,16.29613 c5.43193,5.3659 9.50597,11.36102 12.22211,17.98539 c2.7159,6.55827 4.07391,13.67954 4.07403,21.36384 c-0.00012000000000000008,15.50124 -5.43216,28.61764 -16.29614,39.34921 c-10.99668,10.86411 -24.11307,16.29615 -39.34923,16.29615 c-15.36876,0 -28.48516,-5.43204 -39.34921,-16.29615 c-10.86411,-10.86406 -16.29616,-23.98046 -16.29615,-39.34921 l0,-93.00725 c-0.000010000000000000008,-2.98086 0.9605400000000003,-5.4319 2.88164,-7.35315 c1.98732,-1.9871699999999999 4.47148,-2.98084 7.4525,-2.9809900000000003 c2.91474,0.00015000000000000015 5.36578,0.99382 7.35314,2.9809900000000003 c2.05355,1.9212500000000001 3.08034,4.37229 3.08037,7.35315 l0,49.68336 " id="path3118" style="font-weight: bold; font-family: Comfortaa;" class="" fill="#ffffff" fill-opacity="1"/>
      <path d="m405.28348646528246,502.7745464843749 l0,63.19724 l20.07209,0 c4.30583,0.00007000000000000009 8.34674,-0.8279900000000003 12.12273,-2.4841800000000003 c3.84211,-1.6560200000000007 7.18746,-3.90833 10.03605,-6.7569300000000005 c2.91468,-2.84843 5.2001100000000005,-6.19377 6.8563,-10.03604 c1.72227,-3.84208 2.58345,-7.94923 2.58353,-12.32147 c-0.00008000000000000006,-4.43827 -0.86126,-8.57855 -2.58353,-12.42084 c-1.65619,-3.84206 -3.9416200000000003,-7.18741 -6.8563,-10.03604 c-2.84859,-2.84838 -6.1939400000000004,-5.06757 -10.03605,-6.65757 c-3.8422400000000003,-1.65598 -7.88314,-2.4840400000000002 -12.12273,-2.48417 l-20.07209,0 m-21.06575,127.38814 l0,-137.92101 c0,-1.45723 0.26498000000000016,-2.81524 0.7949400000000003,-4.07404 c0.52995,-1.32474 1.25863,-2.45088 2.18607,-3.37847 c0.99366,-0.9935099999999997 2.11981,-1.7553200000000002 3.37847,-2.28543 c1.25863,-0.5298 2.64976,-0.79478 4.1734,-0.79493 l30.60496,0 c4.76954,0.00015000000000000015 9.37353,0.62948 13.81197,1.88796 c4.50455,1.25881 8.71108,3.0474 12.61957,5.3658 c3.90834,2.3187100000000003 7.48554,5.10097 10.7316,8.34681 c3.24589,3.17988 5.99504,6.72395 8.24744,10.63224 c2.31846,3.90855 4.10707,8.11507 5.3658,12.61958 c1.3248000000000002,4.43849 1.9872299999999998,9.04247 1.98734,13.81197 c-0.00011000000000000007,14.44139 -5.20029,26.86221 -15.60058,37.26252 c-10.26797,10.26795 -22.65567,15.40189 -37.16314,15.40184 l-20.07209,0 l0,43.12516 c-0.00002000000000000002,2.9147600000000002 -1.02681,5.39893 -3.08036,7.4525 c-2.0536,2.05358 -4.53777,3.08037 -7.45251,3.08037 c-2.91477,0 -5.39894,-1.02679 -7.45251,-3.08037 c-2.05358,-2.05357 -3.08037,-4.53774 -3.08037,-7.4525 " id="path3120" style="font-weight: bold; font-family: Comfortaa;" class="" fill="#ffffff" fill-opacity="1"/>
      <path d="m491.93125646528244,529.901656484375 c-0.000010000000000000008,-6.6243300000000005 1.25863,-12.8513 3.7759400000000003,-18.68094 c2.58352,-5.82937 6.06134,-10.9302 10.4335,-15.30248 c4.37211,-4.37198 9.47293,-7.8167 15.30248,-10.33413 c5.82946,-2.51714 12.02331,-3.77578 18.58158,-3.77593 c6.55813,0.00015000000000000015 12.75198,1.2919100000000001 18.58157,3.87529 c5.82944,2.5837000000000003 10.930250000000001,6.06152 15.30247,10.43351 c4.37205,4.37228 7.81676,9.4731 10.33414,15.30247 c2.58344,5.82964 3.8752,11.99037 3.87531,18.48221 c-0.00011000000000000007,6.62456 -1.22563,12.78529 -3.67657,18.48222 c-2.3849,5.6971 -5.8627400000000005,10.86418 -10.43351,15.50121 l-48.29222,56.04282 l51.96878,0 c2.91467,0.000030000000000000024 5.36572,1.02682 7.35314,3.08037 c2.05348,2.05359 3.08027,4.50464 3.08038,7.35314 c-0.00011000000000000007,2.84852 -1.0269,5.29957 -3.08038,7.35313 c-1.98742,1.98734 -4.43847,2.98101 -7.35314,2.98101 l-75.41934,0 c-1.4573800000000001,0 -2.81539,-0.26498000000000016 -4.07403,-0.7949400000000003 c-1.25865,-0.52995 -2.35169,-1.25864 -3.2791,-2.18607 c-0.92743,-0.99365 -1.65612,-2.11981 -2.18607,-3.37846 c-0.52996,-1.25864 -0.7949400000000003,-2.58352 -0.79493,-3.97467 c-0.000010000000000000008,-2.9809900000000003 0.96053,-5.43203 2.88164,-7.35314 l64.38963,-73.53137 c5.43197,-5.4319500000000005 8.14799,-11.95702 8.14807,-19.57525 c-0.00008000000000000006,-3.7095700000000003 -0.7287800000000003,-7.22052 -2.18607,-10.53286 c-1.45746,-3.31211 -3.4447900000000002,-6.19374 -5.962,-8.64491 c-2.45112,-2.51716 -5.33275,-4.5045 -8.64491,-5.96201 c-3.31228,-1.45724 -6.82323,-2.18593 -10.53286,-2.18607 c-3.77599,0.00014000000000000007 -7.32007,0.7288300000000003 -10.63225,2.18607 c-3.31227,1.39127 -6.22702,3.31236 -8.74427,5.76328 c-2.45108,2.45117 -4.40529,5.3328 -5.86263,8.64489 c-1.39117,3.31236 -2.08674,6.88954 -2.08671,10.73161 c-0.000030000000000000024,2.84863 -1.02681,5.29967 -3.08037,7.35315 c-1.9873599999999998,1.9874299999999998 -4.4384,2.98109 -7.35314,2.9809900000000003 c-2.84852,0.00010000000000000006 -5.29956,-0.9935599999999997 -7.35313,-2.9809900000000003 c-1.98735,-2.05348 -2.98101,-4.50452 -2.981,-7.35315 " id="path3122" style="font-weight: bold; font-family: Comfortaa;" class="" fill="#ffffff" fill-opacity="1"/>
      <path d="m644.2604564652825,619.629806484375 c16.09734,0.000030000000000000024 29.84306,-5.697 41.23719,-17.09107 c5.7631700000000015,-5.76323 10.06906,-12.02333 12.91767,-18.78031 c2.84841,-6.82312 4.27266,-14.34186 4.27278,-22.55625 c-0.00012000000000000008,-16.03107 -5.73026,-29.77678 -17.19045,-41.23719 c-11.46038,-11.46016 -25.20609,-17.19031 -41.23719,-17.19044 l-20.07208,0 l0,116.85526 l20.07208,0 m0,-137.921 c21.86061,0.00015000000000000015 40.57466,7.78388 56.1422,23.35118 c7.81673,7.81697 13.64624,16.3625 17.48854,25.63661 c3.9083,9.20809 5.86251,19.3766 5.86264,30.50558 c-0.00013000000000000012,21.92698 -7.78385,40.67415 -23.35118,56.24157 c-15.5013,15.50122 -34.21534,23.25181 -56.1422,23.25181 l-30.60496,0 c-1.45739,0 -2.84852,-0.26498000000000016 -4.1734,-0.7949400000000003 c-1.25866,-0.5961900000000003 -2.38481,-1.3580100000000002 -3.37847,-2.28543 c-0.92742,-0.92741 -1.6892400000000007,-2.02045 -2.28543,-3.2791 c-0.52996,-1.32488 -0.7949400000000003,-2.71601 -0.79493,-4.1734 l0,-137.92101 c-0.000010000000000000004,-1.45723 0.26497000000000015,-2.81524 0.79493,-4.07404 c0.5961900000000003,-1.32474 1.3580100000000002,-2.45088 2.28543,-3.37847 c0.99366,-0.92726 2.11981,-1.65596 3.37847,-2.18607 c1.32488,-0.5960300000000003 2.71601,-0.8941400000000006 4.1734,-0.8942900000000005 l30.60496,0 " id="path3124" style="font-weight: bold; font-family: Comfortaa;" class="" fill="#ffffff" fill-opacity="1"/>
    
  </g></svg>